<?xml version="1.0" encoding="UTF-8"?>
<svg id="Layer_2" data-name="Layer 2" xmlns="http://www.w3.org/2000/svg" viewBox="0 0 168.3 46.03">
  <defs>
    <style>
      .cls-1, .cls-2 {
        stroke-width: 0px;
      }

      .cls-2 {
        fill: #407ec1;
      }
    </style>
  </defs>
  <g id="Layer_1-2" data-name="Layer 1">
    <g>
      <path class="cls-1" d="m45.16,27.79v-11.54c0-.59.03-1.17.08-1.72s.19-1.09.42-1.61c.18-.37.39-.72.61-1.05.41-.48.96-.78,1.66-.89.96-.18,1.93-.27,2.91-.25.98.02,1.95.12,2.91.3.81.11,1.42.52,1.83,1.22l1.33,2.16c.26.48.51.94.75,1.39.24.44.49.91.75,1.39.33.63.67,1.24,1.03,1.83.35.59.71,1.18,1.08,1.78.48.74.95,1.47,1.41,2.19.46.72.95,1.45,1.47,2.19.37.48.73.95,1.08,1.41.35.46.69.93,1.03,1.42.04.04.11.05.22.05.18-.11.3-.18.33-.22.07-.22.11-.41.11-.55.04-.37.06-.73.06-1.08v-1.03c-.04-.37-.06-.72-.08-1.05-.02-.33-.06-.68-.14-1.05-.19-1.11-.29-2.22-.31-3.33-.02-1.11.06-2.22.25-3.33.07-.29.11-.61.11-.94s.02-.65.06-.94c.04-.26.07-.5.11-.72.04-.22.09-.46.17-.72.26-.7.78-1.11,1.55-1.22.55-.07,1.11-.1,1.66-.08.55.02,1.11.07,1.66.14.41.07.81.16,1.22.25.41.09.81.19,1.22.3.92.26,1.55.87,1.89,1.83.48,1.26.67,2.5.55,3.72-.07.96-.12,1.93-.14,2.91-.02.98-.03,1.95-.03,2.91-.04,1.78-.07,3.52-.08,5.24-.02,1.72-.03,3.47-.03,5.24v1.05c0,.33-.04.68-.11,1.05-.15.96-.23,1.93-.25,2.91-.02.98-.03,1.95-.03,2.91.04.3.06.58.06.86v.86c0,.7-.37,1.15-1.11,1.33-.55.19-1.12.34-1.69.47-.57.13-1.17.21-1.8.25h-1.36c-.46,0-.92-.02-1.36-.06-2-.15-3.75-.91-5.27-2.27-.3-.22-.53-.48-.69-.78-.17-.29-.32-.61-.47-.94l-1-2.5c-.59-1.37-1.25-2.69-1.97-3.96-.72-1.28-1.49-2.52-2.3-3.74-.07-.11-.17-.2-.28-.28-.11-.07-.19-.07-.22,0-.15.3-.2.5-.17.61.07.78.17,1.56.28,2.36s.22,1.6.33,2.41c.07.52.16,1.03.25,1.53.09.5.17,1.01.25,1.53.07.33.11.66.11.97v.92c0,.89-.41,1.5-1.22,1.83-.37.15-.73.28-1.08.39-.35.11-.73.19-1.14.22-.85.11-1.7.23-2.55.36-.85.13-1.7.3-2.55.53-.07,0-.15,0-.22.03-.07.02-.15.03-.22.03-.63.07-1.1.02-1.41-.17-.31-.18-.58-.59-.8-1.22-.22-.7-.38-1.41-.47-2.13-.09-.72-.14-1.45-.14-2.19v-11.7h-.11Z"/>
      <path class="cls-1" d="m91.25,15.64h.39c.92-.07,1.79.03,2.61.3.81.28,1.61.62,2.38,1.03.63.37,1.11.78,1.44,1.22.44.55.84,1.13,1.19,1.72.35.59.64,1.22.86,1.89.3.89.56,1.78.8,2.69.24.91.49,1.82.75,2.75.3,1.07.45,2.14.47,3.22.02,1.07-.03,2.15-.14,3.22-.04.3-.07.57-.11.83-.04.26-.09.54-.17.83-.37,1.63-1,3.09-1.89,4.38-.26.33-.52.66-.78.97-.26.32-.5.66-.72,1.03-.7.96-1.65,1.66-2.83,2.11-1.44.55-2.88.89-4.33,1-1.44.11-2.92-.13-4.44-.72-.37-.11-.73-.22-1.08-.33-.35-.11-.71-.24-1.08-.39-1.66-.63-3.03-1.52-4.1-2.66-1.07-1.15-1.9-2.55-2.5-4.21-.74-1.96-.94-4.08-.61-6.38.07-.33.13-.67.17-1.03.04-.35.06-.69.06-1.03.07-.89.2-1.75.39-2.58.18-.83.42-1.67.72-2.52.63-1.55,1.61-2.79,2.94-3.72.63-.41,1.26-.79,1.89-1.17.63-.37,1.26-.74,1.89-1.11.74-.41,1.51-.73,2.3-.97.79-.24,1.62-.36,2.47-.36h1.05Zm-5.05,14.09c.04.41.06.73.06.97s.02.45.06.64c.11,1.48.54,2.79,1.28,3.94.33.63.81,1.11,1.44,1.44.89.44,1.76.43,2.61-.06,1.07-.59,1.79-1.4,2.16-2.44.41-1,.62-2,.64-3.02.02-1.02-.23-2.02-.75-3.02-.19-.37-.4-.72-.64-1.05-.24-.33-.49-.67-.75-1-.37-.48-.8-.82-1.3-1.03-.5-.2-1.04-.32-1.64-.36-.7-.07-1.24.17-1.61.72-.52.7-.92,1.41-1.22,2.14-.3.72-.41,1.43-.33,2.13Z"/>
      <path class="cls-1" d="m107.45,32.33v-4.16c0-.81-.11-1.57-.33-2.27-.19-.48-.44-.79-.78-.94-.22-.07-.45-.16-.69-.25-.24-.09-.47-.19-.69-.31-.48-.26-.78-.61-.89-1.05-.3-.92-.39-1.96-.28-3.11.07-.44.22-.83.44-1.17.22-.33.55-.59,1-.78.15-.07.41-.18.78-.33.37-.22.57-.57.61-1.05v-1.66c0-.22.02-.42.06-.61.18-1.77,1.15-2.83,2.88-3.16,1.22-.18,2.38-.17,3.49.06,1.22.22,2.07.96,2.55,2.22.15.48.25.96.3,1.44.06.48.1.96.14,1.44,0,.52.28.87.83,1.05.22.08.45.15.69.22.24.07.47.17.69.28.15.07.3.16.44.25.15.09.28.21.39.36.52.67.83,1.45.94,2.36.11.91-.09,1.75-.61,2.52-.3.48-.76.78-1.39.89-.19.04-.36.05-.53.05h-.53c-.55.11-.85.44-.89,1-.04.18-.06.36-.08.53-.02.17-.03.34-.03.53-.07,1.18-.1,2.34-.08,3.47.02,1.13.06,2.27.14,3.41,0,.26.04.54.11.83.15.41.37.67.67.78.22.11.44.19.67.25.22.06.46.12.72.19.18.07.35.12.5.14.15.02.31.07.5.14.74.3,1.22.78,1.44,1.44.07.18.13.39.17.61.04.22.06.43.06.61.04.63.02,1.26-.06,1.89-.07.63-.17,1.26-.28,1.89-.04.26-.13.47-.28.64-.15.17-.31.34-.5.53-.22.19-.45.34-.69.47-.24.13-.51.21-.8.25-.7.11-1.39.23-2.05.36-.67.13-1.37.19-2.11.19-.92-.04-1.76-.23-2.5-.58-.74-.35-1.39-.92-1.94-1.69-.48-.63-.89-1.28-1.22-1.97-.33-.68-.59-1.4-.78-2.13-.07-.33-.12-.67-.14-1.03-.02-.35-.05-.69-.08-1.03v-3.99Z"/>
      <path class="cls-1" d="m134.45,32.28c-.52-.04-1.02-.07-1.5-.11-.48-.04-.96-.07-1.44-.11-.15-.04-.29,0-.42.11-.13.11-.18.24-.14.39.07.26.14.52.19.78.06.26.12.54.19.83.07.26.22.5.44.72.41.41.82.78,1.25,1.11.42.33.9.63,1.41.89.59.26,1.18.19,1.77-.22.3-.26.59-.51.89-.75.3-.24.59-.47.89-.69.26-.18.53-.35.8-.5.28-.15.56-.26.86-.33.37-.07.65-.11.83-.11.78.11,1.46.46,2.05,1.05.59.59.92,1.26,1,2,.04.18.02.46-.06.83-.11.67-.33,1.24-.67,1.72-.7,1.04-1.51,1.92-2.41,2.66-.91.74-1.9,1.37-2.97,1.89-1.18.59-2.48.78-3.88.55-.63-.15-1.24-.31-1.83-.47-.59-.17-1.16-.4-1.72-.69-.52-.29-1.04-.59-1.55-.89-.52-.29-1.04-.59-1.55-.89-.85-.52-1.59-1.24-2.22-2.16-1.33-1.77-2.16-3.75-2.5-5.93-.07-.52-.15-1.03-.22-1.55-.07-.52-.13-1.03-.17-1.55-.15-1.85,0-3.61.47-5.3.46-1.68,1.17-3.3,2.14-4.85.67-1.11,1.5-2,2.5-2.66,1-.67,2.11-1.15,3.33-1.44,1.33-.33,2.72-.5,4.16-.5.52.04,1.01.1,1.47.19.46.09.92.23,1.36.42.63.3,1.24.63,1.83,1,.59.37,1.13.81,1.61,1.33.52.52,1.02,1.05,1.5,1.61.48.55.96,1.13,1.44,1.72.3.33.55.69.78,1.08.22.39.44.79.67,1.19.3.55.39,1.24.28,2.05-.19.92-.48,1.77-.89,2.55-.3.52-.65.95-1.05,1.3-.41.35-.91.58-1.5.69-1.26.26-2.5.51-3.72.75-1.22.24-2.46.34-3.72.31Zm-.55-6.1c.18,0,.38,0,.58.03.2.02.42,0,.64-.03.3,0,.52-.13.67-.39.11-.37.06-.7-.17-1-.44-.48-1.04-.85-1.77-1.11-.55-.18-1.12-.18-1.69,0-.57.19-1.06.54-1.47,1.05-.15.19-.19.38-.11.58.07.2.2.34.39.42.48.19.96.3,1.44.33.48.04.98.07,1.5.11Z"/>
      <path class="cls-1" d="m158.75,44.87h-.42c-.24,0-.49-.04-.75-.11-.74-.15-1.49-.3-2.25-.44-.76-.15-1.51-.31-2.25-.5-2.44-.67-4.09-2.24-4.94-4.71-.07-.22-.11-.42-.11-.61-.15-1.07-.05-1.89.31-2.47.35-.57,1.01-1.03,1.97-1.36.89-.33,1.85-.46,2.88-.39,1,.07,1.63.54,1.89,1.39.07.37.15.65.22.83.15.48.54.72,1.17.72.59,0,.94-.28,1.05-.83s-.04-.98-.44-1.28c-.3-.26-.6-.45-.92-.58-.31-.13-.64-.23-.97-.31-.63-.18-1.22-.41-1.77-.67-.55-.26-1.13-.54-1.72-.83-.78-.41-1.48-.85-2.11-1.33-1.18-.89-2.03-2.05-2.55-3.49-.67-1.77-.91-3.7-.72-5.77.11-1.37.72-2.5,1.83-3.38.63-.48,1.27-.91,1.91-1.28.65-.37,1.36-.67,2.14-.89,1.15-.3,2.25-.37,3.33-.22,1.07.15,2.14.32,3.19.53s2.1.45,3.13.75c.18.04.35.07.5.11.15.04.31.09.5.17.59.22,1.09.59,1.5,1.11.85,1.04,1.46,2.2,1.83,3.49.55,1.78-.09,2.94-1.94,3.49-.22.07-.45.13-.69.17-.24.04-.49.09-.75.17-.96.22-1.87-.02-2.72-.72-.33-.26-.66-.52-.97-.78-.31-.26-.66-.5-1.03-.72-.15-.11-.3-.19-.44-.25-.15-.06-.31-.12-.5-.19-.3-.15-.54-.09-.72.17-.11.11-.18.27-.19.47-.02.2,0,.38.08.53.18.33.42.55.72.67.37.15.74.28,1.11.39.37.11.74.22,1.11.33.37.11.74.2,1.11.28.37.08.74.19,1.11.33,1.55.44,2.98,1.15,4.27,2.11,1.85,1.37,2.7,3.16,2.55,5.38,0,.26-.02.51-.06.75-.04.24-.09.47-.17.69-.07.41-.17.81-.28,1.22-.11.41-.2.81-.28,1.22-.19.78-.46,1.49-.83,2.14-.37.65-.81,1.29-1.33,1.91-.74.85-1.57,1.48-2.5,1.89-.92.41-1.92.65-3,.72-.11.04-.24.05-.39.03-.15-.02-.39-.03-.72-.03Z"/>
    </g>
    <g>
      <path class="cls-2" d="m38.72,2.05s0,.1,0,.15c0,1.92-.51,3.74-1.15,5.53-1.44,4.02-3.47,7.75-5.72,11.36-1.22,1.96-2.51,3.87-3.79,5.79-.61.9-1.36,1.15-2.42.87-1.72-.45-3.43-.92-5.15-1.37-.1-.03-.2-.04-.43-.09.3.43.54.76.77,1.1.69.98,1.4,1.95,2.08,2.94.76,1.1.59,2.19-.47,3.02-3.83,2.99-8.15,4.87-12.95,5.57-1.54.22-3.11.25-4.67.31-.44.02-.47.24-.48.54-.08,1.87-.19,3.73-.21,5.6-.02,1.6-.28,2.08-1.75,2.66h-.44c-.08-.04-.15-.09-.24-.11-.95-.21-1.57-.89-1.63-1.86-.05-.82-.08-1.63-.08-2.43,0-6.4,1.68-12.41,5.06-17.97,3.07-5.05,6.74-9.61,11.15-13.56C21.22,5.62,26.8,2.16,33.42.58c.97-.23,1.96-.4,2.94-.55.11-.02.22-.03.33-.03,1.11,0,2.01.89,2.03,2.05Z"/>
      <path class="cls-2" d="m35.21,41.85c.28.85.04,1.78-.71,2.28-.37.25-.87.44-1.31.44-8.09.03-16.17.02-24.26.01-1.23,0-2.11-.92-2.09-2.11.02-1.15.91-1.99,2.14-1.99,4.03,0,8.07,0,12.1,0s8.07,0,12.1,0c.95,0,1.75.55,2.02,1.37Z"/>
    </g>
  </g>
</svg>